:FULLY-SPECIFIED
:FORCE-ALL-JOINTS-BE-3DOF
:DEGREES
275
root 9.9642 16.8085 1.70472 5.75293 -3.12858 1.62116
lfemur -18.7489 6.22386 -28.3312
ltibia 31.9117 0 0
lfoot -17.7511 5.93317 0
ltoes 0.970262 0 0
rfemur -25.3626 -2.37945 18.7426
rtibia 59.0153 0 0
rfoot -16.0077 -10.0879 0
rtoes -15.7791 0 0
lowerback -4.83352 -1.71586 -2.58197
upperback -0.554839 -2.20857 2.10453
thorax 2.32972 -1.13997 3.46593
lowerneck -21.6975 -3.82706 -11.6465
upperneck 21.6033 -4.52492 11.7415
head 11.1469 -1.59973 5.5713
lclavicle -2.57898e-14 1.68132e-14 0
lhumerus -20.9478 -12.5384 86.307
lradius 23.2002 0 0
lwrist -1.24725 0 0
lhand -13.7593 -24.1686 0
lfingers 7.12502 0 0
lthumb 12.3608 5.44088 0
rclavicle -2.57898e-14 1.68132e-14 0
rhumerus -45.8484 7.89278 -83.3379
rradius 42.2611 0 0
rwrist -23.4054 0 0
rhand -29.1976 -22.0656 0
rfingers 7.12502 0 0
rthumb -2.54255 -52.0311 0
276
root 9.97689 16.8188 1.83252 5.65396 -2.90932 1.71975
lfemur -17.7616 6.06213 -28.3898
ltibia 31.2572 0 0
lfoot -18.0054 5.92004 0
ltoes 0.749954 0 0
rfemur -26.4876 -2.29751 18.6525
rtibia 59.2261 0 0
rfoot -17.0562 -10.5806 0
rtoes -15.8024 0 0
lowerback -4.84286 -1.85546 -2.65062
upperback -0.47421 -2.39107 2.12465
thorax 2.43422 -1.23388 3.51157
lowerneck -21.7321 -3.78178 -11.6015
upperneck 21.6992 -4.46401 11.6781
head 11.1755 -1.57464 5.55316
lclavicle -2.83422e-14 1.65164e-14 0
lhumerus -20.1845 -13.0033 86.3098
lradius 23.4683 0 0
lwrist -0.927319 0 0
lhand -13.8853 -24.1826 0
lfingers 7.12502 0 0
lthumb 12.2395 5.43555 0
rclavicle -2.83422e-14 1.65164e-14 0
rhumerus -45.793 7.82356 -83.1755
rradius 42.266 0 0
rwrist -23.2914 0 0
rhand -29.1559 -21.9571 0
rfingers 7.12502 0 0
rthumb -2.50224 -51.9229 0
277
root 9.98874 16.8279 1.96187 5.56877 -2.68637 1.81842
lfemur -16.7854 5.912 -28.4457
ltibia 30.5972 0 0
lfoot -18.2263 5.89051 0
ltoes 0.555811 0 0
rfemur -27.5526 -2.18985 18.5305
rtibia 59.3512 0 0
rfoot -18.0313 -11.0474 0
rtoes -15.8378 0 0
lowerback -4.85842 -1.98964 -2.72385
upperback -0.402118 -2.56546 2.14173
thorax 2.53342 -1.3237 3.55647
lowerneck -21.7593 -3.7434 -11.5626
upperneck 21.7879 -4.41282 11.6213
head 11.2018 -1.55391 5.53661
lclavicle -3.07949e-14 1.62712e-14 0
lhumerus -19.4713 -13.4835 86.3226
lradius 23.7462 0 0
lwrist -0.599726 0 0
lhand -13.9902 -24.1866 0
lfingers 7.12502 0 0
lthumb 12.1384 5.43883 0
rclavicle -3.07949e-14 1.62712e-14 0
rhumerus -45.7532 7.75223 -83.0264
rradius 42.2431 0 0
rwrist -23.173 0 0
rhand -29.111 -21.8666 0
rfingers 7.12502 0 0
rthumb -2.45883 -51.8328 0
278
root 9.99975 16.8356 2.09296 5.49846 -2.46007 1.91729
lfemur -15.8224 5.77505 -28.4993
ltibia 29.9333 0 0
lfoot -18.4105 5.84299 0
ltoes 0.391188 0 0
rfemur -28.5522 -2.05518 18.3736
rtibia 59.3865 0 0
rfoot -18.925 -11.4859 0
rtoes -15.8864 0 0
lowerback -4.8805 -2.11785 -2.80208
upperback -0.339375 -2.73091 2.15543
thorax 2.62662 -1.40901 3.60054
lowerneck -21.7787 -3.71246 -11.5301
upperneck 21.869 -4.37206 11.5713
head 11.2258 -1.53786 5.52178
lclavicle -3.31345e-14 1.60832e-14 0
lhumerus -18.8126 -13.9791 86.3457
lradius 24.0338 0 0
lwrist -0.26501 0 0
lhand -14.0722 -24.1795 0
lfingers 7.12502 0 0
lthumb 12.0594 5.45168 0
rclavicle -3.31345e-14 1.60832e-14 0
rhumerus -45.7305 7.67854 -82.8921
rradius 42.19 0 0
rwrist -23.0499 0 0
rhand -29.0625 -21.7955 0
rfingers 7.12502 0 0
rthumb -2.41207 -51.7621 0
279
root 10.0099 16.8419 2.22593 5.44418 -2.23077 2.01649
lfemur -14.8748 5.65288 -28.551
ltibia 29.2675 0 0
lfoot -18.5551 5.77591 0
ltoes 0.259441 0 0
rfemur -29.4808 -1.8922 18.1794
rtibia 59.3278 0 0
rfoot -19.7296 -11.8937 0
rtoes -15.9493 0 0
lowerback -4.90936 -2.23953 -2.88578
upperback -0.286792 -2.88661 2.1654
thorax 2.71312 -1.4894 3.64365
lowerneck -21.79 -3.68947 -11.5045
upperneck 21.9419 -4.34246 11.5287
head 11.2473 -1.52681 5.50878
lclavicle -3.53477e-14 1.59585e-14 0
lhumerus -18.2127 -14.4904 86.3795
lradius 24.3311 0 0
lwrist 0.0762943 0 0
lhand -14.1294 -24.1601 0
lfingers 7.12502 0 0
lthumb 12.0043 5.47508 0
rclavicle -3.53477e-14 1.59585e-14 0
rhumerus -45.7266 7.60226 -82.7739
rradius 42.1041 0 0
rwrist -22.9222 0 0
rhand -29.0104 -21.7452 0
rfingers 7.12502 0 0
rthumb -2.36175 -51.7121 0
280
root 10.0191 16.8466 2.36097 5.40704 -1.9988 2.11613
lfemur -13.9447 5.54706 -28.6014
ltibia 28.6014 0 0
lfoot -18.657 5.68768 0
ltoes 0.163924 0 0
rfemur -30.3329 -1.69961 17.945
rtibia 59.1709 0 0
rfoot -20.4371 -12.2683 0
rtoes -16.0276 0 0
lowerback -4.94531 -2.35414 -2.97538
upperback -0.24518 -3.03175 2.17128
thorax 2.7922 -1.56444 3.6857
lowerneck -21.7929 -3.67494 -11.4862
upperneck 22.0064 -4.32473 11.4939
head 11.2663 -1.52106 5.49772
lclavicle -3.74212e-14 1.59028e-14 0
lhumerus -17.6757 -15.0172 86.4242
lradius 24.638 0 0
lwrist 0.423651 0 0
lhand -14.1599 -24.1275 0
lfingers 7.12502 0 0
lthumb 11.9749 5.50997 0
rclavicle -3.74212e-14 1.59028e-14 0
rhumerus -45.7431 7.52317 -82.6731
rradius 41.9828 0 0
rwrist -22.7894 0 0
rhand -28.9544 -21.7168 0
rfingers 7.12502 0 0
rthumb -2.30763 -51.6841 0
281
root 10.0275 16.8498 2.49706 5.38747 -1.756 2.21989
lfemur -13.002 5.44852 -28.6532
ltibia 27.8828 0 0
lfoot -18.7335 5.57737 0
ltoes 0.0985078 0 0
rfemur -31.1319 -1.46174 17.6565
rtibia 58.8797 0 0
rfoot -21.0833 -12.6278 0
rtoes -16.1263 0 0
lowerback -4.99196 -2.46476 -3.07392
upperback -0.21255 -3.17014 2.17331
thorax 2.86866 -1.63619 3.72815
lowerneck -21.7847 -3.66892 -11.4753
upperneck 22.0626 -4.31896 11.4658
head 11.2823 -1.52089 5.48819
lclavicle -3.948e-14 1.5913e-14 0
lhumerus -17.1842 -15.5874 86.4808
lradius 24.9745 0 0
lwrist 0.799696 0 0
lhand -14.1654 -24.0828 0
lfingers 7.12502 0 0
lthumb 11.9696 5.55521 0
rclavicle -3.948e-14 1.5913e-14 0
rhumerus -45.7791 7.44051 -82.5866
rradius 41.827 0 0
rwrist -22.6482 0 0
rhand -28.892 -21.7125 0
rfingers 7.12502 0 0
rthumb -2.24741 -51.6802 0
282
root 10.0352 16.8516 2.63312 5.38445 -1.49485 2.33081
lfemur -12.018 5.34744 -28.7082
ltibia 27.0645 0 0
lfoot -18.8033 5.44614 0
ltoes 0.053704 0 0
rfemur -31.905 -1.16663 17.3051
rtibia 58.4283 0 0
rfoot -21.7089 -12.9906 0
rtoes -16.2485 0 0
lowerback -5.05211 -2.57476 -3.18348
upperback -0.186171 -3.30613 2.17214
thorax 2.94751 -1.70692 3.77242
lowerneck -21.7635 -3.67082 -11.4713
upperneck 22.1112 -4.32433 11.4429
head 11.2951 -1.52617 5.47967
lclavicle -4.16494e-14 1.59792e-14 0
lhumerus -16.7177 -16.2248 86.5496
lradius 25.3579 0 0
lwrist 1.22472 0 0
lhand -14.1497 -24.0286 0
lfingers 7.12502 0 0
lthumb 11.9848 5.60859 0
rclavicle -4.16494e-14 1.59792e-14 0
rhumerus -45.8318 7.35394 -82.5101
rradius 41.6405 0 0
rwrist -22.4956 0 0
rhand -28.8216 -21.7322 0
rfingers 7.12502 0 0
rthumb -2.17937 -51.7004 0
283
root 10.0422 16.8522 2.7692 5.39692 -1.2167 2.44804
lfemur -10.9968 5.24425 -28.7655
ltibia 26.1551 0 0
lfoot -18.8655 5.29555 0
ltoes 0.0278306 0 0
rfemur -32.6522 -0.81851 16.896
rtibia 57.8274 0 0
rfoot -22.3137 -13.3553 0
rtoes -16.3923 0 0
lowerback -5.12478 -2.68399 -3.30307
upperback -0.165736 -3.43965 2.168
thorax 3.02843 -1.77659 3.81831
lowerneck -21.7301 -3.68017 -11.4739
upperneck 22.1526 -4.3402 11.4249
head 11.3049 -1.53656 5.47217
lclavicle -4.39157e-14 1.60969e-14 0
lhumerus -16.2759 -16.9238 86.6303
lradius 25.7841 0 0
lwrist 1.69464 0 0
lhand -14.114 -23.9654 0
lfingers 7.12502 0 0
lthumb 12.0191 5.66951 0
rclavicle -4.39157e-14 1.60969e-14 0
rhumerus -45.9 7.26382 -82.4429
rradius 41.4253 0 0
rwrist -22.3326 0 0
rhand -28.7437 -21.7746 0
rfingers 7.12502 0 0
rthumb -2.10418 -51.7432 0
284
root 10.0485 16.8515 2.90537 5.42381 -0.922878 2.57073
lfemur -9.94266 5.1394 -28.8242
ltibia 25.1638 0 0
lfoot -18.9193 5.12715 0
ltoes 0.0192057 0 0
rfemur -33.3737 -0.421656 16.4343
rtibia 57.0879 0 0
rfoot -22.8973 -13.7204 0
rtoes -16.5557 0 0
lowerback -5.209 -2.79232 -3.43169
upperback -0.150941 -3.57064 2.16117
thorax 3.11104 -1.84516 3.86562
lowerneck -21.6854 -3.69653 -11.4826
upperneck 22.1872 -4.36595 11.4117
head 11.3118 -1.55174 5.46565
lclavicle -4.62656e-14 1.62617e-14 0
lhumerus -15.8587 -17.6789 86.7222
lradius 26.2494 0 0
lwrist 2.20542 0 0
lhand -14.0598 -23.8941 0
lfingers 7.12502 0 0
lthumb 12.0714 5.73738 0
rclavicle -4.62656e-14 1.62617e-14 0
rhumerus -45.9826 7.17048 -82.3846
rradius 41.1836 0 0
rwrist -22.16 0 0
rhand -28.6592 -21.8381 0
rfingers 7.12502 0 0
rthumb -2.02248 -51.8071 0
285
root 10.0541 16.8496 3.04167 5.46407 -0.614725 2.69805
lfemur -8.85976 5.03334 -28.8832
ltibia 24.0994 0 0
lfoot -18.9639 4.94249 0
ltoes 0.0261475 0 0
rfemur -34.0695 0.0196804 15.9251
rtibia 56.2206 0 0
rfoot -23.4594 -14.0843 0
rtoes -16.7368 0 0
lowerback -5.30379 -2.8996 -3.56836
upperback -0.14148 -3.69906 2.1519
thorax 3.19502 -1.91256 3.91416
lowerneck -21.6301 -3.71942 -11.4971
upperneck 22.2152 -4.40091 11.403
head 11.3161 -1.57138 5.46011
lclavicle -4.86856e-14 1.6469e-14 0
lhumerus -15.4659 -18.4843 86.8252
lradius 26.7497 0 0
lwrist 2.75298 0 0
lhand -13.9881 -23.8153 0
lfingers 7.12502 0 0
lthumb 12.1405 5.8116 0
rclavicle -4.86856e-14 1.6469e-14 0
rhumerus -46.0783 7.07429 -82.3346
rradius 40.9173 0 0
rwrist -21.9787 0 0
rhand -28.5685 -21.9211 0
rfingers 7.12502 0 0
rthumb -1.93494 -51.8906 0
286
root 10.059 16.8467 3.17817 5.51663 -0.293577 2.82916
lfemur -7.75226 4.9265 -28.9416
ltibia 22.9709 0 0
lfoot -18.9985 4.74313 0
ltoes 0.046974 0 0
rfemur -34.7398 0.501243 15.3735
rtibia 55.2364 0 0
rfoot -23.9997 -14.4455 0
rtoes -16.9337 0 0
lowerback -5.40818 -3.0057 -3.71207
upperback -0.137048 -3.82483 2.14044
thorax 3.28002 -1.97876 3.96374
lowerneck -21.5652 -3.7484 -11.5171
upperneck 22.2371 -4.44447 11.3988
head 11.3178 -1.59517 5.45553
lclavicle -5.11624e-14 1.67146e-14 0
lhumerus -15.0973 -19.3345 86.9386
lradius 27.2811 0 0
lwrist 3.33326 0 0
lhand -13.9005 -23.7296 0
lfingers 7.12502 0 0
lthumb 12.225 5.89155 0
rclavicle -5.11624e-14 1.67146e-14 0
rhumerus -46.1859 6.9756 -82.2924
rradius 40.6285 0 0
rwrist -21.7895 0 0
rhand -28.4725 -22.0221 0
rfingers 7.12502 0 0
rthumb -1.84221 -51.9921 0
287
root 10.0632 16.8429 3.31492 5.58043 0.0392302 2.9632
lfemur -6.62436 4.81933 -28.9984
ltibia 21.7871 0 0
lfoot -19.0222 4.53063 0
ltoes 0.0800034 0 0
rfemur -35.3845 1.01877 14.7847
rtibia 54.1461 0 0
rfoot -24.5178 -14.8025 0
rtoes -17.1444 0 0
lowerback -5.5212 -3.11047 -3.86184
upperback -0.13734 -3.94791 2.12706
thorax 3.36569 -2.04371 4.01415
lowerneck -21.4914 -3.783 -11.542
upperneck 22.2531 -4.49597 11.3987
head 11.3172 -1.62276 5.45189
lclavicle -5.36823e-14 1.69939e-14 0
lhumerus -14.7527 -20.2238 87.062
lradius 27.8396 0 0
lwrist 3.9422 0 0
lhand -13.7981 -23.6379 0
lfingers 7.12502 0 0
lthumb 12.3237 5.97664 0
rclavicle -5.36823e-14 1.69939e-14 0
rhumerus -46.3041 6.87475 -82.2575
rradius 40.3192 0 0
rwrist -21.5933 0 0
rhand -28.3718 -22.1396 0
rfingers 7.12502 0 0
rthumb -1.74496 -52.1101 0
